<?xml version="1.0" encoding="UTF-8"?>
<!DOCTYPE svg PUBLIC "-//W3C//DTD SVG 1.1//EN" "http://www.w3.org/Graphics/SVG/1.1/DTD/svg11.dtd">
<svg xmlns="http://www.w3.org/2000/svg" version="1.1" width="700px" height="216px" style="shape-rendering:geometricPrecision; text-rendering:geometricPrecision; image-rendering:optimizeQuality; fill-rule:evenodd; clip-rule:evenodd" xmlns:xlink="http://www.w3.org/1999/xlink">
<g><path style="opacity:0.891" fill="#f37952" d="M 90.5,10.5 C 93.1667,10.5 95.8333,10.5 98.5,10.5C 98.7771,13.4475 98.4438,16.2809 97.5,19C 61.5481,24.6225 36.3814,44.1225 22,77.5C 8.64071,122.76 21.1407,158.926 59.5,186C 97.7882,206.527 133.788,203.194 167.5,176C 184.779,159.94 194.446,140.107 196.5,116.5C 199.5,116.5 202.5,116.5 205.5,116.5C 201.582,155.567 181.915,183.4 146.5,200C 102.095,216.439 63.5952,207.605 31,173.5C 6.63011,142.229 1.29677,107.896 15,70.5C 30.3021,37.9498 55.4688,17.9498 90.5,10.5 Z"/></g>
<g><path style="opacity:0.887" fill="#f37952" d="M 114.5,10.5 C 153.555,14.4022 181.388,34.0689 198,69.5C 202.217,79.4182 204.717,89.7516 205.5,100.5C 202.5,100.5 199.5,100.5 196.5,100.5C 189.092,53.9255 162.092,26.7588 115.5,19C 114.556,16.2809 114.223,13.4475 114.5,10.5 Z"/></g>
<g><path style="opacity:0.811" fill="#f37952" d="M 96.5,38.5 C 98.7446,39.8278 99.0779,41.6612 97.5,44C 67.4467,50.3865 48.9467,68.5532 42,98.5C 38.9814,133.312 53.4814,157.478 85.5,171C 112.12,178.72 135.287,172.887 155,153.5C 164.306,142.886 169.806,130.552 171.5,116.5C 173.167,116.5 174.833,116.5 176.5,116.5C 172.918,145.81 157.251,165.643 129.5,176C 94.3915,185.191 66.5582,175.024 46,145.5C 29.154,111.77 33.9873,81.6031 60.5,55C 71.2005,46.4802 83.2005,40.9802 96.5,38.5 Z"/></g>
<g><path style="opacity:0.813" fill="#f37952" d="M 114.5,38.5 C 145.271,43.4336 165.437,60.7669 175,90.5C 176.043,93.7568 176.543,97.0901 176.5,100.5C 174.833,100.5 173.167,100.5 171.5,100.5C 165.735,68.9017 147.068,50.0684 115.5,44C 114.594,42.3005 114.261,40.4672 114.5,38.5 Z"/></g>
<g><path style="opacity:0.93" fill="#595a5b" d="M 441.5,135.5 C 441.687,139.913 442.354,144.246 443.5,148.5C 438.554,152.054 433.054,154.387 427,155.5C 423.928,154.964 421.261,153.63 419,151.5C 416.352,147.42 414.852,142.92 414.5,138C 415.634,131.957 417.134,126.124 419,120.5C 410.252,130.315 403.252,141.315 398,153.5C 395.333,156.167 392.667,156.167 390,153.5C 389.457,151.369 388.624,149.369 387.5,147.5C 375.253,154.518 362.253,156.684 348.5,154C 345.035,153.034 342.702,150.868 341.5,147.5C 335.267,151.634 328.434,154.301 321,155.5C 315.768,155.598 312.102,153.265 310,148.5C 303.21,154.45 295.71,155.95 287.5,153C 285.288,150.957 283.288,148.791 281.5,146.5C 274.127,154.343 265.461,156.51 255.5,153C 248.826,145.636 246.993,137.136 250,127.5C 254.057,114.273 262.891,106.606 276.5,104.5C 276.938,88.136 281.105,72.8027 289,58.5C 293.17,51.3077 299.336,48.141 307.5,49C 310.381,50.2506 312.214,52.4173 313,55.5C 314.905,69.9912 312.905,83.9912 307,97.5C 303.194,106.583 299.194,115.583 295,124.5C 293.183,129.528 293.183,134.528 295,139.5C 296.388,140.554 297.888,140.72 299.5,140C 303.589,137.873 307.423,135.373 311,132.5C 313.177,123.457 315.511,114.457 318,105.5C 321.792,101.872 326.292,100.706 331.5,102C 332.097,103.062 332.43,104.228 332.5,105.5C 330.334,114.165 328.167,122.832 326,131.5C 325.207,135.423 325.374,139.256 326.5,143C 330.74,143.299 333.573,141.465 335,137.5C 339.366,132.799 344.033,128.466 349,124.5C 354.117,117.048 359.617,109.882 365.5,103C 369.43,101.249 373.43,101.082 377.5,102.5C 380.186,105.931 380.019,109.264 377,112.5C 374.43,114.219 372.93,116.553 372.5,119.5C 374.623,125.993 375.79,132.66 376,139.5C 379.755,137.372 383.588,135.372 387.5,133.5C 388.297,114.27 390.797,95.27 395,76.5C 397.3,67.0623 401.8,58.8956 408.5,52C 413.44,48.8956 418.774,47.8956 424.5,49C 427.428,50.2598 429.261,52.4265 430,55.5C 430.834,66.6634 428.834,77.3301 424,87.5C 419.663,96.4942 415.663,105.494 412,114.5C 415.933,108.566 421.1,104.066 427.5,101C 433.135,99.4642 436.135,101.631 436.5,107.5C 434.845,115.632 432.679,123.632 430,131.5C 429.333,133.833 429.333,136.167 430,138.5C 430.388,139.428 431.055,140.095 432,140.5C 435.415,139.21 438.582,137.544 441.5,135.5 Z M 402.5,108.5 C 403.085,92.494 407.251,77.494 415,63.5C 416,62.5 417,61.5 418,60.5C 418.696,64.9054 418.363,69.2388 417,73.5C 413.218,85.7135 408.385,97.3802 402.5,108.5 Z M 300.5,62.5 C 302.884,63.4251 303.884,65.2585 303.5,68C 301.698,82.074 297.864,95.574 292,108.5C 291.401,94.8933 293.068,81.56 297,68.5C 297.926,66.3083 299.093,64.3083 300.5,62.5 Z M 275.5,114.5 C 276.818,117.258 277.485,120.424 277.5,124C 278.781,131.434 276.447,137.434 270.5,142C 265.975,142.902 263.308,141.069 262.5,136.5C 264.291,127.573 268.624,120.24 275.5,114.5 Z M 360.5,127.5 C 362.373,131.89 362.873,136.556 362,141.5C 357.05,146.875 352.55,146.375 348.5,140C 352.704,135.964 356.704,131.798 360.5,127.5 Z"/></g>
<g><path style="opacity:0.931" fill="#f37853" d="M 443.5,148.5 C 442.354,144.246 441.687,139.913 441.5,135.5C 442.055,123.557 447.388,114.39 457.5,108C 461.231,105.901 465.231,104.734 469.5,104.5C 469.417,88.4967 473.251,73.4967 481,59.5C 483.883,54.9499 487.716,51.4499 492.5,49C 500.245,47.3974 504.745,50.5641 506,58.5C 507.049,70.5416 505.382,82.2083 501,93.5C 496.138,104.418 491.472,115.418 487,126.5C 486.333,130.5 486.333,134.5 487,138.5C 489.243,140.787 491.743,140.953 494.5,139C 497.423,136.955 500.257,134.788 503,132.5C 505.667,123.167 508.333,113.833 511,104.5C 514.761,101.757 518.928,100.924 523.5,102C 524.116,103.4 524.449,104.9 524.5,106.5C 521.961,116.785 519.627,127.119 517.5,137.5C 517.077,140.318 518.077,142.318 520.5,143.5C 525.222,141.721 529.388,139.055 533,135.5C 533.5,128.991 533.333,122.491 532.5,116C 532.644,111.79 533.144,107.624 534,103.5C 537.992,101.73 542.159,101.23 546.5,102C 547.98,103.299 548.646,104.966 548.5,107C 547.355,117.149 546.855,127.316 547,137.5C 551.667,126.167 556.333,114.833 561,103.5C 565.052,101.058 569.219,100.891 573.5,103C 574.108,104.231 574.441,105.564 574.5,107C 572.439,113.783 570.106,120.45 567.5,127C 568.852,132.849 572.519,134.849 578.5,133C 580.081,132.293 581.581,131.46 583,130.5C 583.07,125.687 582.904,120.853 582.5,116C 582.494,111.764 582.994,107.598 584,103.5C 587.992,101.73 592.159,101.23 596.5,102C 597.894,102.956 598.561,104.289 598.5,106C 597.272,116.14 596.772,126.307 597,136.5C 601.862,125.582 606.528,114.582 611,103.5C 615.052,101.058 619.219,100.891 623.5,103C 624.108,104.231 624.441,105.564 624.5,107C 622.458,113.754 620.125,120.421 617.5,127C 617.75,131.417 620.083,133.583 624.5,133.5C 626.512,133.16 628.512,132.827 630.5,132.5C 630.823,123.207 633.323,114.54 638,106.5C 641.338,103.682 645.171,102.849 649.5,104C 650.61,106.737 650.777,109.571 650,112.5C 646.202,121.825 644.868,131.491 646,141.5C 647.133,143.211 648.633,143.711 650.5,143C 653.106,141.062 654.939,138.562 656,135.5C 658.082,126.417 660.416,117.417 663,108.5C 666.735,104.904 671.235,103.571 676.5,104.5C 674.443,118.835 672.61,133.169 671,147.5C 678.041,142.126 684.041,135.793 689,128.5C 690.252,132.678 691.418,136.844 692.5,141C 685.82,149.914 677.654,157.08 668,162.5C 666.115,176.168 661.115,188.502 653,199.5C 644.26,207.181 634.926,208.181 625,202.5C 622.475,198.289 622.141,193.955 624,189.5C 626.232,184.035 629.232,179.035 633,174.5C 639.961,167.373 647.128,160.373 654.5,153.5C 655.506,152.604 655.506,151.938 654.5,151.5C 644.429,157.923 636.429,155.923 630.5,145.5C 621.142,149.378 613.976,147.044 609,138.5C 605.926,144.808 601.76,150.308 596.5,155C 593.084,155.893 589.917,155.393 587,153.5C 585.4,150.666 584.234,147.666 583.5,144.5C 573.311,149.897 565.144,147.897 559,138.5C 556.306,145.184 552.14,150.684 546.5,155C 543.366,155.79 540.366,155.457 537.5,154C 536.435,151.594 535.102,149.427 533.5,147.5C 527.385,151.973 520.552,154.639 513,155.5C 508.01,155.264 504.51,152.931 502.5,148.5C 497.769,151.782 492.602,154.115 487,155.5C 481.247,154.464 476.914,151.464 474,146.5C 467.225,153.817 459.058,156.317 449.5,154C 446.977,152.64 444.977,150.807 443.5,148.5 Z M 492.5,62.5 C 493.496,62.4142 494.329,62.7476 495,63.5C 494.854,79.6197 491.187,94.9531 484,109.5C 483.976,98.762 484.976,88.0953 487,77.5C 487.769,72.0763 489.603,67.0763 492.5,62.5 Z M 467.5,114.5 C 469.215,119.45 470.215,124.784 470.5,130.5C 468.879,134.244 466.879,137.744 464.5,141C 456.903,143.406 454.07,140.573 456,132.5C 458.072,125.351 461.906,119.351 467.5,114.5 Z M 651.5,171.5 C 650.508,180.654 646.508,188.154 639.5,194C 637.359,194.884 635.693,194.384 634.5,192.5C 638.356,183.983 644.022,176.983 651.5,171.5 Z"/></g>
<g><path style="opacity:0.898" fill="#f37952" d="M 115.5,70.5 C 123.754,69.4201 127.42,73.0868 126.5,81.5C 126.217,85.196 125.717,88.8626 125,92.5C 120.83,103.678 116.663,114.844 112.5,126C 113.148,127.44 113.481,128.94 113.5,130.5C 118.144,129.872 122.144,127.872 125.5,124.5C 127.372,127.718 127.705,131.052 126.5,134.5C 121.737,139.219 116.07,141.053 109.5,140C 107.658,138.656 105.992,137.156 104.5,135.5C 98.9889,140.759 92.8222,141.759 86,138.5C 80.6554,127.373 82.822,117.873 92.5,110C 95.2065,108.092 98.2065,107.259 101.5,107.5C 101.408,95.5317 104.574,84.5317 111,74.5C 112.397,72.9297 113.897,71.5964 115.5,70.5 Z M 117.5,79.5 C 118.641,82.6399 118.808,85.9733 118,89.5C 116.603,96.0232 114.603,102.357 112,108.5C 111.292,98.2649 113.125,88.5982 117.5,79.5 Z M 99.5,114.5 C 102.139,119.661 101.972,124.994 99,130.5C 95.7473,132.967 93.5807,132.134 92.5,128C 93.3996,122.699 95.7329,118.199 99.5,114.5 Z"/></g>
<g><path style="opacity:0.902" fill="#585a5b" d="M 327.5,76.5 C 341.161,75.6338 344.828,81.1338 338.5,93C 332.539,96.6966 327.039,96.1966 322,91.5C 319.363,84.7869 321.196,79.7869 327.5,76.5 Z"/></g>
<g><path style="opacity:0.907" fill="#f37952" d="M 520.5,76.5 C 524.96,75.8847 528.96,76.8847 532.5,79.5C 536.307,88.8759 533.14,94.2093 523,95.5C 514.527,95.0196 511.527,90.6862 514,82.5C 515.436,79.5581 517.603,77.5581 520.5,76.5 Z"/></g>
</svg>
