<?xml version="1.0" standalone="no"?>
<!DOCTYPE svg PUBLIC "-//W3C//DTD SVG 20010904//EN"
 "http://www.w3.org/TR/2001/REC-SVG-20010904/DTD/svg10.dtd">
<svg version="1.0" xmlns="http://www.w3.org/2000/svg"
 width="302.000000pt" height="110.000000pt" viewBox="0 0 302.000000 110.000000"
 preserveAspectRatio="xMidYMid meet">

<g transform="translate(0.000000,110.000000) scale(0.100000,-0.100000)"
fill="#000000" stroke="none">
<path d="M656 1078 c-3 -13 -7 -70 -11 -128 -8 -154 -25 -152 -25 4 0 116 -2
127 -17 124 -15 -3 -19 -19 -24 -98 -7 -110 -17 -160 -30 -160 -5 0 -9 47 -7
113 2 118 -5 157 -27 157 -19 0 -23 -19 -31 -152 -3 -65 -10 -118 -15 -118
-11 0 -9 -16 -19 129 -8 115 -19 156 -37 137 -5 -4 -8 -77 -8 -162 0 -85 -3
-154 -7 -154 -5 0 -8 -15 -8 -34 0 -28 8 -40 44 -70 65 -53 71 -87 70 -394 0
-184 3 -252 11 -252 15 0 25 182 25 450 l0 195 -59 55 c-59 56 -72 89 -26 68
28 -12 55 3 55 31 0 10 5 7 13 -9 16 -33 47 -39 54 -10 l6 21 14 -21 c17 -24
36 -26 57 -4 15 14 16 11 16 -28 0 -38 -5 -49 -41 -83 l-42 -39 8 -66 c4 -36
9 -180 11 -320 2 -183 7 -256 15 -259 9 -3 10 66 6 280 -4 156 -9 298 -13 316
-5 27 0 37 35 76 l41 44 0 176 c0 96 -3 182 -6 191 -9 23 -23 20 -28 -6z"/>
<path d="M121 1043 c-72 -36 -130 -161 -116 -251 8 -56 28 -96 56 -116 21 -15
22 -17 10 -116 -17 -153 -15 -384 4 -400 13 -11 15 10 15 176 0 123 5 219 15
274 8 47 15 88 15 92 0 5 -18 27 -40 49 -36 38 -40 46 -40 93 1 120 93 216
174 182 35 -15 79 -65 91 -105 24 -78 -13 -180 -80 -224 l-34 -22 2 -287 c2
-208 5 -289 14 -292 21 -9 27 175 12 372 l-14 184 43 35 c57 47 85 103 85 174
0 139 -110 234 -212 182z"/>
<path d="M909 1033 c-15 -41 -109 -465 -122 -555 -13 -90 -8 -99 58 -118 l45
-13 0 -158 c0 -137 2 -158 15 -153 12 5 15 28 15 124 0 64 -3 138 -6 163 -6
43 -8 46 -50 57 -66 19 -68 25 -45 131 11 52 36 170 56 262 48 223 48 224 68
162 16 -51 44 -462 49 -727 2 -70 7 -124 12 -121 5 4 6 106 2 239 -3 129 -9
339 -12 468 -4 129 -10 239 -13 244 -3 5 -18 12 -34 16 -24 6 -29 3 -38 -21z"/>
<path d="M1254 1047 c-2 -7 -3 -78 -2 -157 l3 -145 30 0 30 0 3 105 3 105 60
-107 61 -108 39 0 39 0 0 135 0 135 235 0 c228 0 235 1 235 20 0 19 -7 20
-265 20 l-265 0 0 -102 0 -103 -49 85 c-72 125 -77 130 -117 130 -19 0 -37 -6
-40 -13z"/>
<path d="M2047 1054 c-4 -4 -7 -22 -7 -41 0 -21 -6 -36 -15 -39 -8 -4 -15 -15
-15 -25 0 -10 7 -19 15 -19 12 0 15 -15 15 -75 0 -62 4 -79 20 -95 27 -27 90
-28 90 -2 0 11 -11 24 -25 30 -23 11 -25 17 -25 77 0 63 1 65 25 65 18 0 25 5
25 20 0 15 -7 20 -24 20 -22 0 -25 5 -28 43 -2 33 -7 43 -23 45 -12 2 -24 0
-28 -4z"/>
<path d="M2177 1054 c-4 -4 -7 -76 -7 -161 l0 -153 30 0 31 0 -3 158 c-3 149
-4 157 -23 160 -12 2 -24 0 -28 -4z"/>
<path d="M2385 1053 c-103 -12 -115 -15 -115 -29 0 -11 20 -14 105 -14 l105 0
0 25 c0 26 -11 28 -95 18z"/>
<path d="M1623 969 c-46 -13 -73 -53 -73 -106 0 -82 38 -122 113 -123 64 0
106 22 107 58 0 17 -43 15 -78 -5 -28 -16 -31 -16 -56 0 -14 10 -26 24 -26 32
0 12 17 15 85 15 l85 0 0 33 c0 42 -24 75 -66 93 -38 16 -46 16 -91 3z m79
-56 c29 -26 21 -33 -37 -33 -59 0 -64 4 -38 32 20 22 51 23 75 1z"/>
<path d="M1855 970 c-87 -28 -66 -116 32 -135 50 -9 67 -23 52 -41 -15 -18
-54 -18 -73 1 -22 23 -66 20 -66 -5 0 -28 49 -50 110 -50 41 0 56 5 75 25 47
46 22 95 -57 115 -65 17 -70 19 -66 33 6 16 57 22 71 8 17 -17 67 -14 67 4 0
35 -88 63 -145 45z"/>
<path d="M2324 966 c-46 -20 -64 -52 -64 -114 0 -46 4 -58 29 -83 25 -25 37
-29 84 -29 40 0 61 6 81 21 53 42 11 68 -52 32 -28 -16 -31 -16 -56 0 -14 10
-26 24 -26 32 0 12 17 15 85 15 l85 0 0 33 c0 42 -24 75 -66 93 -41 17 -60 17
-100 0z m88 -53 c29 -26 21 -33 -37 -33 -41 0 -55 4 -55 15 0 33 62 46 92 18z"/>
<path d="M2545 620 c-4 -6 -5 -71 -4 -145 1 -75 0 -137 -3 -140 -3 -3 -29 51
-58 121 -53 123 -85 168 -118 162 -8 -2 -18 -10 -23 -18 -10 -20 -32 -522 -23
-543 7 -20 64 -23 81 -6 8 8 10 46 6 118 -3 59 -2 134 2 167 l7 59 14 -30 c7
-16 37 -89 65 -162 28 -73 57 -140 63 -149 20 -27 54 -9 66 34 11 39 14 499 4
526 -7 18 -69 22 -79 6z"/>
<path d="M1311 598 c-13 -11 -35 -46 -50 -77 -24 -53 -26 -65 -26 -201 1 -215
26 -277 118 -287 43 -5 49 -3 82 30 33 33 35 39 35 101 0 59 -2 66 -19 66 -27
0 -51 -27 -51 -56 0 -55 -44 -88 -55 -42 -3 13 -9 43 -15 68 -13 61 -13 280 1
319 11 30 13 32 58 29 41 -3 46 -1 49 19 2 16 -5 26 -27 37 -41 22 -73 20
-100 -6z"/>
<path d="M1623 613 c-13 -2 -32 -16 -43 -30 -36 -46 -45 -100 -45 -288 0 -236
14 -265 123 -265 69 0 90 30 112 161 11 74 -8 347 -27 377 -13 22 -71 54 -90
51 -4 -1 -18 -4 -30 -6z m61 -246 c-1 -159 -15 -246 -39 -250 -14 -3 -17 122
-7 278 10 139 16 165 36 145 7 -7 11 -64 10 -173z"/>
<path d="M1911 598 c-13 -11 -35 -46 -50 -77 -24 -53 -26 -65 -26 -201 1 -215
26 -277 118 -287 43 -5 49 -3 82 30 33 33 35 39 35 101 0 59 -2 66 -19 66 -27
0 -51 -27 -51 -56 0 -55 -44 -88 -55 -42 -3 13 -9 43 -15 68 -13 61 -13 280 1
319 11 30 13 32 58 29 41 -3 46 -1 49 19 2 16 -5 26 -27 37 -41 22 -73 20
-100 -6z"/>
<path d="M2152 608 c-24 -24 -6 -538 19 -564 20 -20 48 -8 56 24 10 43 -6 523
-18 539 -14 16 -41 17 -57 1z"/>
<path d="M2867 593 c-8 -16 -25 -59 -37 -98 -13 -38 -38 -109 -56 -157 -41
-108 -88 -284 -79 -298 3 -5 15 -10 25 -10 18 0 28 19 64 125 l13 40 64 0 64
0 11 -68 c12 -73 30 -102 57 -91 27 10 30 46 14 151 -9 54 -18 126 -21 160 -7
84 -34 211 -52 245 -19 36 -49 36 -67 1z m44 -238 l4 -80 -48 -3 -47 -3 26 68
c14 37 31 81 36 97 16 42 25 16 29 -79z"/>
</g>
</svg>
