<?xml version="1.0" encoding="UTF-8"?>
<!DOCTYPE svg PUBLIC "-//W3C//DTD SVG 1.1//EN" "http://www.w3.org/Graphics/SVG/1.1/DTD/svg11.dtd">
<svg xmlns="http://www.w3.org/2000/svg" version="1.1" width="687px" height="346px" style="shape-rendering:geometricPrecision; text-rendering:geometricPrecision; image-rendering:optimizeQuality; fill-rule:evenodd; clip-rule:evenodd" xmlns:xlink="http://www.w3.org/1999/xlink">
<g><path style="opacity:1" fill="#fcfcfc" d="M -0.5,-0.5 C 228.5,-0.5 457.5,-0.5 686.5,-0.5C 686.5,114.833 686.5,230.167 686.5,345.5C 457.5,345.5 228.5,345.5 -0.5,345.5C -0.5,230.167 -0.5,114.833 -0.5,-0.5 Z"/></g>
<g><path style="opacity:1" fill="#333333" d="M 314.5,11.5 C 330.391,12.961 345.725,16.7944 360.5,23C 369.604,28.7005 375.104,36.8672 377,47.5C 378.222,60.8165 378.555,74.1498 378,87.5C 376.602,99.5995 370.102,104.766 358.5,103C 354.912,100.623 351.412,98.1227 348,95.5C 347.275,93.0506 346.275,90.7173 345,88.5C 344.333,85.8333 344.333,83.1667 345,80.5C 348.753,72.2326 350.086,63.566 349,54.5C 347.824,48.6592 344.324,46.4925 338.5,48C 329.916,54.3187 324.75,62.8187 323,73.5C 321.379,85.2201 322.712,96.5534 327,107.5C 342.063,140.702 356.73,174.035 371,207.5C 377.543,223.129 382.876,239.129 387,255.5C 389.617,280.083 381.784,300.583 363.5,317C 348.41,327.028 332.744,328.028 316.5,320C 301.606,313.439 291.106,302.606 285,287.5C 276.449,269.74 273.449,251.074 276,231.5C 278.263,224.903 282.763,220.736 289.5,219C 302.398,214.402 310.898,218.569 315,231.5C 315.667,234.833 316.333,238.167 317,241.5C 317.333,251.5 317.667,261.5 318,271.5C 321.625,280.928 327.625,282.928 336,277.5C 340.073,269.655 341.74,261.321 341,252.5C 338.964,243.426 336.63,234.426 334,225.5C 318.861,194.22 304.528,162.554 291,130.5C 275.81,95.4899 277.143,61.1565 295,27.5C 300.525,20.7926 307.025,15.4592 314.5,11.5 Z"/></g>
<g><path style="opacity:1" fill="#343434" d="M 403.5,14.5 C 431.503,14.662 459.503,14.662 487.5,14.5C 498.109,13.7765 503.776,18.6099 504.5,29C 504.086,35.5764 502.086,41.5764 498.5,47C 496.913,47.8624 495.246,48.5291 493.5,49C 483.186,49.9499 472.853,50.4499 462.5,50.5C 465.933,109.106 467.433,167.772 467,226.5C 467.795,245.543 468.795,264.543 470,283.5C 469.687,287.965 467.521,291.132 463.5,293C 454.674,294.719 446.008,297.053 437.5,300C 432.311,300.985 427.311,300.485 422.5,298.5C 419.186,292.477 417.519,285.977 417.5,279C 418.279,263.802 419.446,248.635 421,233.5C 421.798,188.386 424.465,143.386 429,98.5C 429.667,86.8333 429.667,75.1667 429,63.5C 428.983,59.107 428.15,54.9403 426.5,51C 418.79,50.5877 411.124,51.0877 403.5,52.5C 399.194,52.8003 396.028,51.1337 394,47.5C 391.957,41.2937 390.957,34.9604 391,28.5C 392.678,21.3944 396.845,16.7277 403.5,14.5 Z"/></g>
<g><path style="opacity:1" fill="#333333" d="M 575.5,174.5 C 576.289,174.217 576.956,173.717 577.5,173C 574.961,172.204 572.628,172.371 570.5,173.5C 556.811,173.385 543.477,171.218 530.5,167C 520.902,161.97 515.069,154.137 513,143.5C 512.333,133.5 512.333,123.5 513,113.5C 514.693,90.6713 517.693,68.0046 522,45.5C 523.29,39.3779 524.957,33.3779 527,27.5C 536.776,18.7232 547.442,17.3899 559,23.5C 559.621,34.5316 557.955,45.1983 554,55.5C 549.932,75.3374 547.098,95.3374 545.5,115.5C 543.308,127.839 548.308,134.506 560.5,135.5C 565.875,135.882 570.041,133.882 573,129.5C 578.165,98.6703 582.165,67.6703 585,36.5C 588.465,32.0332 592.298,27.8666 596.5,24C 604.072,21.7065 611.238,22.5399 618,26.5C 620.935,30.2996 622.102,34.6329 621.5,39.5C 621.128,47.5496 620.295,55.5496 619,63.5C 612.268,93.4919 606.435,123.659 601.5,154C 601.833,155.833 602.167,157.667 602.5,159.5C 609.04,155.73 615.707,152.23 622.5,149C 631.492,138.663 642.158,130.663 654.5,125C 664.35,123.492 670.516,127.659 673,137.5C 673.667,140.833 673.667,144.167 673,147.5C 667.516,154.982 661.349,161.815 654.5,168C 638.592,179.205 622.425,190.039 606,200.5C 605.879,214.161 606.045,227.828 606.5,241.5C 609.024,273.441 599.024,300.607 576.5,323C 565.033,331.904 552.033,335.237 537.5,333C 516.527,328.703 501.361,316.87 492,297.5C 482.557,278.194 480.557,258.194 486,237.5C 488.745,231.675 491.745,226.008 495,220.5C 502.6,213.565 510.766,207.398 519.5,202C 538.867,194.057 557.534,184.89 575.5,174.5 Z"/></g>
<g><path style="opacity:1" fill="#333333" d="M 104.5,22.5 C 115.906,21.396 126.906,22.896 137.5,27C 140.135,28.9605 141.969,31.4605 143,34.5C 145.27,42.6406 144.937,50.6406 142,58.5C 140.681,60.4875 138.848,61.6541 136.5,62C 127.859,62.9789 119.192,63.6456 110.5,64C 106.174,64.2255 102.007,65.0589 98,66.5C 97.2375,116.679 96.0709,166.845 94.5,217C 95.7709,241.201 97.2709,265.368 99,289.5C 97.7136,295.571 95.2136,301.071 91.5,306C 86.1667,306.333 80.8333,306.667 75.5,307C 69.251,310.531 62.5843,312.198 55.5,312C 50.6636,305.484 48.6636,298.151 49.5,290C 50.7873,278.546 51.6206,267.046 52,255.5C 52.1669,228.817 52.8336,202.151 54,175.5C 54.6667,140.833 54.6667,106.167 54,71.5C 41.2115,71.9551 28.3781,71.4551 15.5,70C 12.5719,68.7402 10.7386,66.5735 10,63.5C 8.6442,56.424 9.6442,49.7574 13,43.5C 14.4194,42.5399 15.9194,41.7065 17.5,41C 46.4623,34.0533 75.4623,27.8867 104.5,22.5 Z"/></g>
<g><path style="opacity:1" fill="#333333" d="M 219.5,319.5 C 220.152,302.799 219.485,286.466 217.5,270.5C 204.475,270.034 191.475,270.034 178.5,270.5C 177.543,280.129 176.71,289.795 176,299.5C 175.759,303.731 174.259,307.398 171.5,310.5C 161.509,316.163 150.842,318.997 139.5,319C 131.686,315.89 128.02,310.056 128.5,301.5C 136.679,259.416 143.513,217.083 149,174.5C 154.233,145.001 160.233,115.668 167,86.5C 171.488,71.0334 177.155,56.0334 184,41.5C 190.766,33.6978 199.266,30.1978 209.5,31C 213.164,32.0024 216.331,33.8358 219,36.5C 227.808,52.4501 233.475,69.4501 236,87.5C 237.333,94.8333 238.667,102.167 240,109.5C 241.501,132.848 243.168,156.181 245,179.5C 248.017,203.603 251.684,227.603 256,251.5C 256.725,266.547 257.891,281.547 259.5,296.5C 258.86,305.45 257.027,314.117 254,322.5C 244.726,331.18 234.559,332.513 223.5,326.5C 221.384,324.6 220.051,322.267 219.5,319.5 Z"/></g>
<g><path style="opacity:1" fill="#f7f7f7" d="M 201.5,107.5 C 202.496,107.414 203.329,107.748 204,108.5C 204.912,112.795 205.579,117.128 206,121.5C 209.013,160.531 212.18,199.531 215.5,238.5C 204.5,238.5 193.5,238.5 182.5,238.5C 184.371,199.449 189.205,160.783 197,122.5C 198.351,117.424 199.851,112.424 201.5,107.5 Z"/></g>
<g><path style="opacity:1" fill="#979797" d="M 570.5,173.5 C 572.628,172.371 574.961,172.204 577.5,173C 576.956,173.717 576.289,174.217 575.5,174.5C 574.081,173.549 572.415,173.216 570.5,173.5 Z"/></g>
<g><path style="opacity:1" fill="#fbfbfb" d="M 574.5,218.5 C 575.5,218.5 576.5,218.5 577.5,218.5C 577.667,232.837 577.5,247.171 577,261.5C 575.765,272.892 571.265,282.725 563.5,291C 551.297,296.777 540.13,295.277 530,286.5C 527.376,280.047 526.043,273.381 526,266.5C 529.515,255.311 535.681,245.811 544.5,238C 554.394,231.227 564.394,224.727 574.5,218.5 Z"/></g>
<g><path style="opacity:1" fill="#797979" d="M 217.5,270.5 C 219.485,286.466 220.152,302.799 219.5,319.5C 218.82,303.265 218.153,286.931 217.5,270.5 Z"/></g>
</svg>
